<svg width="100" height="100" viewBox="0 0 100 100" fill="none" xmlns="http://www.w3.org/2000/svg">
<rect width="100" height="100" rx="15" fill="#0078D4"/>
<path d="M23.5116 40.487H35.0932V77.6901H23.5116V40.487ZM29.3024 22C33.005 22 36.0071 25.0048 36.0071 28.6996C36.0071 32.3996 33.005 35.4096 29.3024 35.4096C25.5894 35.4096 22.5898 32.3996 22.5898 28.6996C22.5898 25.0048 25.5894 22 29.3024 22Z" fill="white"/>
<path d="M42.3477 40.4862H53.4397V45.574H53.5908C55.1374 42.6474 58.9103 39.5645 64.5422 39.5645C76.2514 39.5645 78.41 47.2639 78.41 57.2834V77.6867H66.8544V59.5981C66.8544 55.281 66.7711 49.7323 60.8449 49.7323C54.825 49.7323 53.9084 54.4322 53.9084 59.2831V77.6867H42.3503L42.3477 40.4862Z" fill="white"/>
</svg>
